<?xml version="1.0" standalone="no"?>
<!DOCTYPE svg PUBLIC "-//W3C//DTD SVG 20010904//EN"
 "http://www.w3.org/TR/2001/REC-SVG-20010904/DTD/svg10.dtd">
<svg version="1.0" xmlns="http://www.w3.org/2000/svg"
 width="841.000000pt" height="841.000000pt" viewBox="0 0 841.000000 841.000000"
 preserveAspectRatio="xMidYMid meet">
<metadata>
Created by potrace 1.14, written by Peter Selinger 2001-2017
</metadata>
<g transform="translate(0.000000,841.000000) scale(0.100000,-0.100000)"
fill="#000000" stroke="none">
<path d="M1808 8235 c-2 -2 -39 -6 -83 -9 -129 -10 -186 -16 -260 -27 -38 -6
-77 -11 -85 -11 -8 0 -33 -4 -55 -8 -22 -5 -58 -11 -80 -15 -91 -14 -110 -17
-116 -21 -4 -2 -24 -6 -45 -10 -120 -18 -947 -255 -969 -277 -7 -7 -7 -8 0 -5
6 3 37 8 70 12 77 8 140 15 190 21 22 2 63 7 90 10 28 3 84 10 125 15 41 5
100 12 130 15 30 3 71 8 90 10 19 2 59 7 88 10 79 8 143 14 187 20 22 2 78 7
125 10 47 4 101 8 120 10 188 23 763 23 890 1 14 -3 52 -7 85 -10 33 -3 74 -8
90 -11 17 -3 59 -10 95 -16 36 -6 79 -15 95 -19 17 -5 41 -11 55 -14 158 -27
485 -149 678 -252 394 -211 719 -485 1046 -879 174 -210 290 -381 598 -882 98
-158 268 -430 378 -603 110 -173 214 -337 231 -365 16 -27 130 -207 253 -400
l222 -350 -85 -54 c-354 -223 -569 -479 -683 -811 -57 -167 -73 -270 -72 -465
1 -472 240 -864 649 -1068 60 -30 175 -77 175 -72 0 2 19 -2 42 -11 37 -13
167 -46 228 -58 64 -12 138 -26 170 -31 19 -3 42 -8 50 -10 8 -3 35 -7 60 -9
25 -3 83 -9 130 -15 117 -15 164 -20 240 -25 195 -15 344 -24 535 -31 388 -15
371 -15 645 -30 52 -3 119 -8 148 -11 l52 -5 0 392 0 391 -27 -18 c-163 -107
-334 -195 -499 -260 -112 -44 -310 -100 -388 -109 -22 -3 -68 -9 -101 -14 -90
-13 -368 -5 -470 13 -185 33 -320 74 -463 141 -480 227 -700 697 -566 1212 72
279 216 477 435 597 111 61 212 93 408 131 97 18 406 25 566 12 158 -14 210
-19 218 -24 14 -8 7 11 -12 31 -10 12 -65 90 -121 174 -135 203 -160 227 -240
236 -74 9 -200 45 -284 82 -268 118 -485 343 -821 849 -105 158 -262 411 -278
445 -13 31 -326 539 -400 652 -279 424 -614 793 -961 1061 -55 43 -108 84
-116 90 -143 112 -456 289 -680 385 -229 97 -510 185 -700 218 -25 4 -47 8
-50 9 -5 1 -83 15 -110 20 -8 1 -41 6 -74 10 -32 3 -68 8 -80 11 -74 13 -697
30 -708 19z"/>
<path d="M90 6530 c0 -310 3 -390 13 -384 6 4 35 22 62 40 151 97 384 210 542
263 198 66 349 93 548 96 94 2 197 -1 230 -6 33 -5 74 -11 90 -14 235 -34 506
-139 660 -256 125 -94 236 -222 297 -344 35 -67 75 -170 83 -212 40 -195 37
-354 -9 -535 -134 -512 -493 -748 -1146 -751 -189 -1 -459 15 -481 29 -16 9
-10 -9 10 -30 10 -12 67 -93 126 -181 133 -198 154 -219 235 -230 331 -46 595
-229 877 -606 180 -241 315 -448 590 -908 54 -90 107 -179 118 -197 239 -396
441 -674 665 -919 75 -82 264 -268 324 -319 26 -22 60 -51 75 -64 14 -13 85
-68 156 -122 415 -313 861 -518 1389 -636 25 -6 159 -31 201 -38 116 -18 118
-18 275 -33 110 -9 559 -10 675 -1 113 10 166 16 425 53 53 8 105 17 110 20 3
2 24 6 46 9 51 8 81 14 102 20 9 3 29 7 43 10 45 7 290 74 429 117 74 22 149
45 165 49 17 5 46 13 65 20 19 6 42 13 50 15 8 2 44 13 80 24 36 12 73 21 83
21 10 0 15 5 12 10 -4 6 -10 8 -14 6 -4 -3 -32 -7 -62 -10 -29 -3 -70 -8 -89
-10 -19 -3 -60 -7 -90 -10 -88 -10 -142 -16 -190 -23 -25 -3 -58 -7 -75 -8
-28 -3 -58 -6 -170 -20 -22 -2 -65 -7 -95 -10 -58 -6 -118 -12 -185 -20 -22
-3 -78 -7 -125 -11 -47 -3 -101 -8 -120 -10 -206 -22 -758 -22 -890 0 -14 3
-50 7 -81 10 -48 4 -140 17 -214 30 -11 2 -69 16 -130 30 -399 97 -750 264
-1090 519 -219 165 -406 346 -612 592 -97 116 -92 110 -171 218 -102 138 -193
276 -359 547 -190 311 -351 566 -796 1266 -196 308 -359 567 -362 576 -4 11
21 32 92 78 318 206 505 417 630 710 43 100 86 259 102 370 13 92 6 320 -13
415 -68 343 -263 625 -547 792 -121 71 -306 141 -439 167 -14 2 -47 10 -75 16
-27 6 -59 13 -70 15 -11 1 -31 5 -45 8 -14 4 -43 9 -65 12 -22 3 -67 10 -100
15 -132 21 -255 35 -400 45 -38 3 -97 7 -130 10 -33 3 -112 7 -175 10 -63 3
-160 7 -215 10 -55 3 -163 7 -240 11 -252 10 -433 20 -542 29 l-63 6 0 -391z"/>
</g>
</svg>
